<?xml version="1.0" encoding="utf-8"?>
<!-- Generator: Adobe Illustrator 22.1.0, SVG Export Plug-In . SVG Version: 6.00 Build 0)  -->
<svg version="1.1" id="Layer_1" xmlns="http://www.w3.org/2000/svg" xmlns:xlink="http://www.w3.org/1999/xlink" x="0px" y="0px"
	 viewBox="0 0 369 216" style="enable-background:new 0 0 369 216;" xml:space="preserve">
<style type="text/css">
	.st0{fill:#A62C39;}
	.st1{fill:#005CAA;}
	.st2{fill:#231F20;}
	.st3{fill:#FFFFFF;}
	.st4{fill:#A40C34;}
	.st5{fill:#A7A9AC;}
</style>
<g>
	<polygon id="XMLID_76_" class="st4" points="198.8,196 195.5,196 193,173.5 197.1,173.5 198.6,188.4 205.8,173.5 210.3,173.5 	"/>
	<path id="XMLID_73_" class="st4" d="M223.1,185.4L221,196h-3.8l0.3-1.5c-0.9,0.9-2.2,1.6-4,1.6c-2.9,0-4.7-1.8-4.7-4.3
		c0-1.6,0.5-2.9,1.5-3.9c1.2-1.2,2.9-1.7,4.8-1.7h3.9l0.2-1c0.1-0.3,0.1-0.5,0.1-0.9c0-1.1-0.8-1.8-2.4-1.8c-1.6,0-2.7,0.6-3.5,1.6
		l-2-2.6c1.3-1.4,3-2.2,6.1-2.2c2.8,0,5.9,1.1,5.9,4.6C223.3,184.4,223.2,185,223.1,185.4 M215.5,189c-1.8,0-2.8,1.1-2.8,2.5
		c0,0.9,0.7,1.6,2.1,1.6c1.1,0,2-0.4,2.6-1c0.5-0.5,0.8-1.3,1-2.1l0.2-1H215.5z"/>
	<path id="XMLID_70_" class="st4" d="M241.8,187.8c-0.7,3.4-1.4,5.6-2.6,6.8c-1.3,1.3-2.7,1.6-4.2,1.6c-1.5,0-2.9-0.5-3.7-1.8
		l-1.5,7.6h-3.9l4.5-22.5h3.8l-0.3,1.6c1.1-1.3,2.5-1.8,4.1-1.8c3.5,0,4.5,2.5,4.5,4.6C242.3,184.7,242.3,185.6,241.8,187.8
		 M236.3,182.9c-2.3,0-3.1,1.9-3.7,4.9c-0.2,0.9-0.3,2-0.3,2.7c0,1,0.3,2.3,2,2.3c2.3,0,3.1-1.9,3.7-4.9c0.2-0.9,0.3-2,0.3-2.7
		C238.2,184.1,238,182.9,236.3,182.9"/>
	<path id="XMLID_67_" class="st4" d="M260,187.8c-0.6,3.4-1.5,5.2-2.9,6.6c-1.2,1.2-3,1.9-5.1,1.9c-2.5,0-5.6-1.5-5.6-5.5
		c0-1,0.2-2.2,0.3-3c0.6-3.4,1.5-5.1,2.9-6.5c1.2-1.2,3-1.9,5.1-1.9c2.5,0,5.6,1.4,5.6,5.4C260.3,185.8,260.1,187,260,187.8
		 M254.4,182.9c-0.8,0-1.6,0.3-2.1,0.8c-0.8,0.8-1.3,2-1.7,4.1c-0.3,1.5-0.3,2.2-0.3,2.6c0,1.6,0.9,2.3,2.1,2.3c0.8,0,1.5-0.3,2-0.8
		c0.8-0.8,1.3-2.1,1.7-4.1c0.3-1.5,0.3-2.2,0.3-2.6C256.4,183.6,255.6,182.9,254.4,182.9"/>
	<path id="XMLID_66_" class="st4" d="M275,183.9c-0.3-0.3-0.8-1-1.8-1c-1.6,0-2.9,1.3-3.3,3.2l-2,10H264l3.3-16.5h3.8l-0.3,1.6
		c0.9-1.1,2.5-1.8,4.2-1.8c1.6,0,2.6,0.5,3.5,1.6L275,183.9z"/>
	<path id="XMLID_65_" class="st4" d="M293.8,180.4c0-2.1-1.1-3.4-3-3.4c-1.3,0-2.4,0.6-3.1,1.3c-1.1,1.1-1.6,2.7-2.3,6.5
		c-0.4,2-0.6,3.6-0.6,4.8c0,2.3,1.6,3,3,3c2,0,4.1-1.5,4.7-4.5l0.2-1h-4l0.7-3.5h8.1l-0.6,3.2c-0.6,3.2-1.4,5.2-3.1,6.9
		c-1.6,1.6-3.9,2.5-6.2,2.5c-4.6,0-7-3-7-6.4c0-1.3,0.3-3,0.7-5.1c1-5.4,1.6-7.1,3.4-8.9c1.7-1.7,3.9-2.6,6.4-2.6c4.8,0,7,3.4,7,7.1
		H293.8z"/>
	<path id="XMLID_64_" class="st4" d="M311.9,183.9c-0.3-0.3-0.8-1-1.8-1c-1.6,0-2.9,1.3-3.3,3.2l-2,10h-3.9l3.3-16.5h3.8l-0.3,1.6
		c0.9-1.1,2.5-1.8,4.2-1.8c1.6,0,2.6,0.5,3.5,1.6L311.9,183.9z"/>
	<path id="XMLID_61_" class="st4" d="M320.3,196h-3.9l3.3-16.5h3.9L320.3,196z M324.2,176.8h-4l0.6-3.3h4.1L324.2,176.8z"/>
	<path id="XMLID_58_" class="st4" d="M341.3,187.8c-0.7,3.4-1.4,5.6-2.6,6.8c-1.3,1.3-2.7,1.6-4.2,1.6s-2.9-0.5-3.7-1.8l-1.5,7.6
		h-3.9l4.5-22.5h3.8l-0.4,1.6c1.1-1.3,2.5-1.8,4.1-1.8c3.5,0,4.5,2.5,4.5,4.6C341.8,184.7,341.8,185.6,341.3,187.8 M335.8,182.9
		c-2.3,0-3.1,1.9-3.7,4.9c-0.2,0.9-0.3,2-0.3,2.7c0,1,0.3,2.3,2,2.3c2.3,0,3.1-1.9,3.7-4.9c0.2-0.9,0.3-2,0.3-2.7
		C337.7,184.1,337.5,182.9,335.8,182.9"/>
	<polygon id="XMLID_57_" class="st5" points="242.5,200.8 240.2,200.8 238.7,209 236.9,209 238.5,200.8 236.2,200.8 236.5,199.2 
		242.8,199.2 	"/>
	<path id="XMLID_54_" class="st5" d="M249.6,206h-4.1c0,0.2-0.1,0.3-0.1,0.5c0,0.7,0.4,1.2,1.2,1.2c0.7,0,1.1-0.3,1.6-0.7l0.8,1.1
		c-0.7,0.7-1.6,1-2.6,1c-1.2,0-2.5-0.6-2.5-2.5c0-2.4,1.1-4.8,3.5-4.8c1.5,0,2.4,1,2.4,2.6C249.9,204.8,249.8,205.4,249.6,206
		 M247.3,203.2c-0.7,0-1.3,0.5-1.6,1.6h2.5c0-0.2,0-0.3,0-0.5C248.3,203.6,247.9,203.2,247.3,203.2"/>
	<path id="XMLID_53_" class="st5" d="M257.5,203.9c-0.3-0.4-0.5-0.6-0.9-0.6c-0.4,0-0.7,0.1-1,0.5c-0.4,0.4-0.6,1-0.7,1.7
		c-0.1,0.3-0.1,0.6-0.1,0.9c0,0.8,0.3,1.2,1,1.2c0.5,0,0.8-0.2,1.2-0.6l0.9,1.2c-0.6,0.6-1.4,0.9-2.2,0.9c-1.3,0-2.4-0.9-2.4-2.6
		c0-0.3,0-0.7,0.1-1.1c0.5-2.9,2.1-3.7,3.5-3.7c1,0,1.6,0.4,2,1L257.5,203.9z"/>
	<path id="XMLID_52_" class="st5" d="M267.5,204.6l-0.9,4.5H265l0.8-4.4c0-0.2,0.1-0.3,0.1-0.5c0-0.6-0.4-0.9-0.8-0.9
		c-0.5,0-1.2,0.2-1.4,1.4l-0.8,4.4h-1.6l1.9-9.8h1.6l-0.6,3.2c0.4-0.4,1-0.6,1.7-0.6c0.8,0,1.8,0.6,1.8,2
		C267.6,204,267.5,204.3,267.5,204.6"/>
	<path id="XMLID_51_" class="st5" d="M276.9,204.6l-0.9,4.5h-1.6l0.8-4.4c0-0.2,0.1-0.3,0.1-0.5c0-0.6-0.4-0.9-0.8-0.9
		c-0.5,0-1.2,0.2-1.4,1.4l-0.8,4.4h-1.6l1.4-7.2h1.6l-0.1,0.7c0.4-0.5,1.1-0.8,1.8-0.8c0.8,0,1.8,0.6,1.8,2
		C277,204,277,204.3,276.9,204.6"/>
	<path id="XMLID_48_" class="st5" d="M286,205.4c-0.3,1.5-0.6,2.2-1.2,2.8c-0.5,0.5-1.2,0.8-2.1,0.8c-1,0-2.3-0.6-2.3-2.4
		c0-0.4,0.1-1,0.1-1.3c0.3-1.5,0.6-2.2,1.2-2.8c0.5-0.5,1.2-0.8,2.1-0.8c1,0,2.3,0.6,2.3,2.4C286.1,204.6,286.1,205.1,286,205.4
		 M283.7,203.3c-0.3,0-0.6,0.1-0.9,0.4c-0.3,0.3-0.5,0.9-0.7,1.8c-0.1,0.6-0.1,1-0.1,1.1c0,0.7,0.4,1,0.9,1c0.3,0,0.6-0.1,0.8-0.4
		c0.3-0.3,0.5-0.9,0.7-1.8c0.1-0.6,0.1-0.9,0.1-1.1C284.5,203.6,284.2,203.3,283.7,203.3"/>
	<path id="XMLID_47_" class="st5" d="M291.2,206.9c0,0.1,0,0.2,0,0.3c0,0.3,0.1,0.4,0.5,0.4h0.7L292,209h-0.9
		c-0.9,0-1.6-0.6-1.6-1.6c0-0.2,0-0.4,0.1-0.6l1.4-7.7h1.6L291.2,206.9z"/>
	<path id="XMLID_44_" class="st5" d="M301.3,205.4c-0.3,1.5-0.6,2.2-1.2,2.8c-0.5,0.5-1.2,0.8-2.1,0.8c-1,0-2.3-0.6-2.3-2.4
		c0-0.4,0.1-1,0.1-1.3c0.3-1.5,0.6-2.2,1.2-2.8c0.5-0.5,1.2-0.8,2.1-0.8c1,0,2.3,0.6,2.3,2.4C301.5,204.6,301.4,205.1,301.3,205.4
		 M299,203.3c-0.3,0-0.6,0.1-0.9,0.4c-0.3,0.3-0.5,0.9-0.7,1.8c-0.1,0.6-0.1,1-0.1,1.1c0,0.7,0.4,1,0.9,1c0.3,0,0.6-0.1,0.8-0.4
		c0.3-0.3,0.5-0.9,0.7-1.8c0.1-0.6,0.1-0.9,0.1-1.1C299.9,203.6,299.5,203.3,299,203.3"/>
	<path id="XMLID_41_" class="st5" d="M309.7,208.8c-0.4,2.1-1.7,3-3.3,3c-1,0-1.7-0.3-2.3-1l1.1-1c0.2,0.2,0.5,0.6,1.1,0.6
		c0.9,0,1.5-0.6,1.7-1.6l0.1-0.7c-0.4,0.4-0.8,0.7-1.5,0.7c-1,0-1.9-0.7-1.9-2c0-0.3,0.1-0.9,0.2-1.5c0.2-1.4,0.5-2.2,1-2.8
		c0.5-0.5,1.1-0.7,1.7-0.7c0.7,0,1.2,0.3,1.5,0.8l0.1-0.7h1.6L309.7,208.8z M308,203.3c-0.8,0-1.2,0.7-1.4,2c-0.1,0.4-0.1,0.8-0.1,1
		c0,0.5,0.2,1,0.8,1c0.8,0,1.2-0.7,1.4-2c0.1-0.4,0.1-0.8,0.1-1C308.9,203.7,308.6,203.3,308,203.3"/>
	<path id="XMLID_40_" class="st5" d="M316,210.2c-0.2,0.3-0.4,0.6-0.6,0.8c-0.4,0.5-0.9,0.6-1.6,0.6h-0.6l0.3-1.5h0.4
		c0.5,0,0.7-0.2,0.9-0.7l0.4-0.9l-1-6.7h1.6l0.5,4.6l2.2-4.6h1.7L316,210.2z"/>
	<polygon id="XMLID_39_" class="st5" points="167.8,183.6 166.4,183.6 165.9,177.6 163,183.6 161.6,183.6 161.1,173.8 162.8,173.8 
		163,180.1 165.9,173.8 167.2,173.8 167.6,180.1 170.1,173.8 172,173.8 	"/>
	<path id="XMLID_36_" class="st5" d="M172.7,183.6h-1.6l1.4-7.2h1.6L172.7,183.6z M174.3,175.2h-1.7l0.3-1.4h1.7L174.3,175.2z"/>
	<path id="XMLID_35_" class="st5" d="M178.5,177.9h-1.1l-0.7,3.5c0,0.1,0,0.2,0,0.3c0,0.3,0.2,0.4,0.5,0.4h0.6l-0.3,1.4h-0.8
		c-0.9,0-1.6-0.6-1.6-1.6c0-0.2,0-0.4,0.1-0.6l0.7-3.5h-0.7l0.2-1.3h0.7l0.4-2.1h1.6l-0.4,2.1h1.1L178.5,177.9z"/>
	<path id="XMLID_34_" class="st5" d="M185.1,179.1l-0.8,4.5h-1.6l0.8-4.4c0-0.2,0.1-0.3,0.1-0.5c0-0.6-0.4-0.9-0.8-0.9
		c-0.5,0-1.2,0.2-1.4,1.4l-0.8,4.4h-1.6l1.9-9.8h1.6l-0.6,3.2c0.4-0.4,1-0.6,1.7-0.6c0.8,0,1.8,0.6,1.8,2
		C185.2,178.6,185.2,178.9,185.1,179.1"/>
	<path id="XMLID_27_" class="st2" d="M186.7,129.2h-26l10.8-8.7h46.4l-2.1,8.7h-19.2l-8.7,36H178L186.7,129.2z M212.3,165.2h37.6
		l2.2-9.1h-27.2l2.2-9.1h18.3l8.7-9.1h-24.8l2-8.3h26l2.2-9.1h-36.4L212.3,165.2z M257,165.2h10.4l7.7-31.8h0.1l12.9,31.8h13.6
		l10.8-44.7h-10.4l-7.5,31h-0.1l-12.6-31h-14.1L257,165.2z M310.8,165.2h17c14.1,0,28.4-7.8,31.9-22.2c3.9-16.3-7.3-22.5-22.5-22.5
		h-15.6L310.8,165.2z M329.7,129.6h6.1c8.8,0,15.2,4.1,13.1,12.9c-2.4,10.2-10.6,13.6-20.2,13.6h-5.4L329.7,129.6z M165.6,120.7
		h-25.1L109,146l-19.4-25.2H64.6l28.9,37.7l-47.1,37.7h25.1l31.5-25.2l19.4,25.2h25.1l-28.9-37.7L165.6,120.7z"/>
	<polygon id="XMLID_23_" class="st4" points="27.5,196 40,196 86.9,158.3 58.2,120.6 45.7,120.6 73.9,158.3 	"/>
	<polygon id="XMLID_22_" class="st5" points="8.5,196 21.1,196 67.9,158.3 39.3,120.6 26.8,120.6 54.9,158.3 	"/>
	<path id="XMLID_19_" class="st2" d="M83.3,81.7c-8.5,2.4-15.8,11.4-16.4,20c-0.6,8.6,5.8,13.6,14.2,11.1
		c5.2-1.5,10.1-5.7,13.2-10.5c1.8-2.9,3-6.3,3.3-9.5C98.2,84.2,91.8,79.2,83.3,81.7 M87.7,95.7c-0.1,1.1-0.6,2.5-1.3,3.5
		c-1,1.7-2.8,3.1-4.6,3.6c-3,0.9-5.3-0.9-5.1-3.9c0.2-3,2.8-6.2,5.8-7.1C85.7,90.9,87.9,92.6,87.7,95.7"/>
	<path id="XMLID_18_" class="st2" d="M118.7,83.2c0,0-6,16.3-6.7,18c-0.7,1.8-2.6,3.3-4.3,3.3c-1.6,0-2.3-1.4-1.6-3.2
		c0.7-1.8,6.7-18.2,6.7-18.2l-9.9,0c0,0-4.4,11.9-7.3,19.7c-2.5,6.7,0.4,9.7,4.4,10c3.1,0.2,6.7-1.1,8.9-3.2l-1,2.7l9.9,0l10.8-29.3
		L118.7,83.2z"/>
	<path id="XMLID_15_" class="st2" d="M64.5,117.5l-0.6-25.7c4.2-1.2,11.5-4.2,14.3-12.7C81.9,68,72.7,65.6,64,65.6
		c-1.9,0-4.4,0-6.9,0l-4.7-0.1c0,0-4.5,0-7.2,0l-17.8,48.6h13.3L50,89.4l0.8,28.2 M63.2,82.8c-1.4,3.7-5.9,6.3-9.4,6.3h-3.7
		l4.7-12.7c0,0,1.5,0,4.1,0C62.3,76.4,64.5,79.1,63.2,82.8"/>
	<path id="XMLID_12_" class="st2" d="M216.8,117.3l2.1-6c1.5,1.6,3.5,2.3,6.2,2.3c7.5,0,16.1-6.9,19.2-15.3c1.2-3.1,1.3-6.2,0.6-8.6
		c-0.9-3.1-3.1-6.5-8.4-6.8c-2.9-0.2-6.1,1-8.3,2.5l0.7-1.8l-9.6,0l-11.9,33.7H216.8z M223.8,98.3c1.1-3,4.4-5.4,7.3-5.4
		c1.7,0,3,1,3.5,2.2c0.3,0.8,0.2,2-0.2,3.1c-1.1,3-4.4,5.4-7.3,5.4C224.2,103.6,222.7,101.2,223.8,98.3"/>
	<path id="XMLID_11_" class="st2" d="M205.9,112.8l10.8-29.3l-9.9,0c0,0-6,16.3-6.7,18.1c-0.7,1.8-2.6,3.3-4.3,3.3
		c-1.6,0-2.3-1.4-1.6-3.2c0.7-1.8,6.7-18.2,6.7-18.2l-9.9,0c0,0-4.4,11.9-7.3,19.7c-2.5,6.7,0.4,9.7,4.4,10c3.1,0.2,6.7-1.1,8.9-3.2
		l-1,2.7L205.9,112.8z"/>
	<path id="XMLID_8_" class="st2" d="M184,70.1l-5.7,15.3c-1.5-1.6-3.7-2.5-6.5-2.5c-7.5,0-16,6.9-19.2,15.3
		c-1.2,3.1-1.5,6.3-0.8,8.8c0.9,3.1,3.2,6.6,8.7,6.6c3.2,0,5.8-1.1,8.5-3l-0.8,2.2l9.6,0l15.8-42.8L184,70.1z M173.6,98.2
		c-1.2,3.2-4.7,5.7-7.8,5.7c-1.8,0-3.2-1-3.7-2.4c-0.3-0.9-0.3-2.2,0.2-3.3c1.2-3.2,4.7-5.7,7.8-5.7C173.2,92.5,174.8,95,173.6,98.2
		"/>
	<path id="XMLID_7_" class="st2" d="M149.1,82.7c-3.1-0.2-6.7,1.1-8.9,3.2l1-2.7l-9.9,0l-10.8,29.3h9.9c0,0,6-16.3,6.7-18
		c0.7-1.8,2.6-3.3,4.3-3.3c1.6,0,2.3,1.4,1.6,3.2c-0.6,1.8-6.7,18.2-6.7,18.2l9.9,0c0,0,4.4-11.9,7.3-19.7
		C155.9,86,153,83,149.1,82.7"/>
	<path id="XMLID_6_" class="st5" d="M56.5,35.5l-8.4,22.4c29.9,1.2,39,4,45.3,18.8l34.5,0C119.9,54.5,97.4,37.9,56.5,35.5"/>
	<path id="XMLID_5_" class="st4" d="M67.9,4.3l-9.3,25c45.6,3.2,70,22.1,77.6,47.5l39.3,0C167.4,38.6,128.6,8.6,67.9,4.3"/>
	<g id="XMLID_1_">
		<path id="XMLID_2_" class="st4" d="M345,196.2c-1.3,0-2.2-1-2.2-2.2c0-1.3,1-2.2,2.2-2.2c1.2,0,2.2,0.9,2.2,2.2
			S346.2,196.2,345,196.2z M345,192.1c-1,0-1.7,0.8-1.7,1.8c0,1,0.7,1.8,1.7,1.8c1,0,1.7-0.8,1.7-1.8
			C346.7,192.9,346,192.1,345,192.1z M344.6,195.3h-0.4v-2.5h0.9c0.6,0,0.9,0.2,0.9,0.7c0,0.4-0.3,0.6-0.6,0.7l0.7,1.1h-0.5
			l-0.6-1.1h-0.4V195.3z M345,193.9c0.3,0,0.6,0,0.6-0.4c0-0.3-0.3-0.3-0.5-0.3h-0.5v0.7H345z"/>
	</g>
	<g id="XMLID_163_">
		<path id="XMLID_164_" class="st2" d="M353.2,165.2c-1.6,0-2.8-1.2-2.8-2.8c0-1.7,1.3-2.8,2.8-2.8c1.5,0,2.7,1.1,2.7,2.8
			S354.7,165.2,353.2,165.2z M353.2,160.1c-1.2,0-2.2,1-2.2,2.3c0,1.3,0.8,2.3,2.2,2.3c1.2,0,2.1-0.9,2.1-2.3
			C355.3,161.1,354.4,160.1,353.2,160.1z M352.6,164h-0.5v-3.1h1.2c0.7,0,1.1,0.3,1.1,0.9c0,0.6-0.3,0.8-0.8,0.8l0.9,1.4h-0.6
			l-0.8-1.3h-0.5V164z M353.2,162.3c0.4,0,0.7,0,0.7-0.5c0-0.4-0.4-0.4-0.7-0.4h-0.6v0.9H353.2z"/>
	</g>
</g>
</svg>
